<?xml version="1.0" encoding="UTF-8"?>
<svg version="1.1" xmlns="http://www.w3.org/2000/svg" width="335" height="172">
<path d="M0 0 C4.00725399 4.17912268 5.84947594 7.24737971 7 13 C8.32 8.05 9.64 3.1 11 -2 C16.28 -2 21.56 -2 27 -2 C27 -1.01 27 -0.02 27 1 C27.66 1 28.32 1 29 1 C29.99 5.95 29.99 5.95 31 11 C33.31 6.71 35.62 2.42 38 -2 C40.62527189 -2.05382106 43.24944713 -2.09358313 45.875 -2.125 C46.62136719 -2.14175781 47.36773437 -2.15851563 48.13671875 -2.17578125 C50.09194461 -2.1933959 52.04742021 -2.10320189 54 -2 C56 -0 56 -0 56.08422852 1.88623047 C55.22745841 9.42299571 53.64173608 16.73865894 51.9375 24.125 C51.65583984 25.36765625 51.37417969 26.6103125 51.08398438 27.890625 C50.39466567 30.92830067 49.69807714 33.96432511 49 37 C44.71 37 40.42 37 36 37 C36 36.34 36 35.68 36 35 C35.01 35 34.02 35 33 35 C33.33 32.03 33.66 29.06 34 26 C32.02 29.63 30.04 33.26 28 37 C26.741875 37.04125 25.48375 37.0825 24.1875 37.125 C23.12595703 37.15980469 23.12595703 37.15980469 22.04296875 37.1953125 C20 37 20 37 17 35 C15.97367456 31.03739588 15.56195885 27.06339475 15 23 C14.01 27.62 13.02 32.24 12 37 C10.35 37 8.7 37 7 37 C7 36.34 7 35.68 7 35 C6.01 35 5.02 35 4 35 C4 32.03 4 29.06 4 26 C3.25556641 27.04800781 3.25556641 27.04800781 2.49609375 28.1171875 C-3.06355965 35.56522412 -3.06355965 35.56522412 -7.5 37.625 C-15.40897481 38.47239016 -22.31286125 38.75174447 -28.80078125 33.55859375 C-33.14498902 29.08996953 -33.85524712 25.07883016 -34 19 C-34.27714844 20.21558594 -34.55429688 21.43117188 -34.83984375 22.68359375 C-35.20553898 24.26827307 -35.57143475 25.85290612 -35.9375 27.4375 C-36.11990234 28.23994141 -36.30230469 29.04238281 -36.49023438 29.86914062 C-37.88671875 35.88671875 -37.88671875 35.88671875 -39 37 C-41.09916026 37.17858965 -43.20622688 37.26798477 -45.3125 37.3125 C-47.03919922 37.36857422 -47.03919922 37.36857422 -48.80078125 37.42578125 C-52 37 -52 37 -54.27734375 35.43359375 C-56.47996003 32.32196123 -57.29500888 29.43353718 -58.25 25.75 C-58.58515625 24.48671875 -58.9203125 23.2234375 -59.265625 21.921875 C-59.62914062 20.47554687 -59.62914062 20.47554687 -60 19 C-60.20496094 20.13179687 -60.40992188 21.26359375 -60.62109375 22.4296875 C-60.89306972 23.91148761 -61.16521387 25.39325685 -61.4375 26.875 C-61.57220703 27.62136719 -61.70691406 28.36773437 -61.84570312 29.13671875 C-62.88671875 34.7734375 -62.88671875 34.7734375 -64 37 C-65.65 37 -67.3 37 -69 37 C-69 36.34 -69 35.68 -69 35 C-69.99 34.67 -70.98 34.34 -72 34 C-70.48877592 24.95555286 -68.84838621 15.95627669 -66.875 7 C-66.70452148 6.21705566 -66.53404297 5.43411133 -66.35839844 4.62744141 C-65.12394681 -0.87605319 -65.12394681 -0.87605319 -64 -2 C-61.71187186 -2.15215174 -59.41800872 -2.22186492 -57.125 -2.25 C-55.24167969 -2.28867188 -55.24167969 -2.28867188 -53.3203125 -2.328125 C-50 -2 -50 -2 -48.16015625 -0.93359375 C-46.41806714 1.96988809 -45.95042221 4.87637996 -45.3125 8.1875 C-45.06113281 9.45980469 -44.80976562 10.73210937 -44.55078125 12.04296875 C-44.36902344 13.01878906 -44.18726562 13.99460937 -44 15 C-43.72285156 13.85660156 -43.44570312 12.71320313 -43.16015625 11.53515625 C-42.79445622 10.04422535 -42.42856071 8.55334239 -42.0625 7.0625 C-41.88009766 6.30775391 -41.69769531 5.55300781 -41.50976562 4.77539062 C-40.11328125 -0.88671875 -40.11328125 -0.88671875 -39 -2 C-37.00041636 -2.04080783 -34.99954746 -2.04254356 -33 -2 C-33 -1.01 -33 -0.02 -33 1 C-32.34 1 -31.68 1 -31 1 C-31.33 3.97 -31.66 6.94 -32 10 C-31.443125 8.9275 -30.88625 7.855 -30.3125 6.75 C-27.62971836 2.10672409 -24.8043142 -0.306033 -19.75 -2.25 C-12.56064763 -3.68787047 -6.47304121 -3.9082513 0 0 Z M-11 5 C-16.82497016 11.38867695 -18.3181543 21.58481876 -18 30 C-16.01066734 29.41757856 -16.01066734 29.41757856 -14 28 C-10.69873842 20.7896255 -9.35570922 12.87895917 -9 5 C-9.66 5 -10.32 5 -11 5 Z " fill="#48B5D4" transform="translate(115,71)"/>
<path d="M0 0 C4.49941058 4.85462721 5.2981037 7.89963591 5.21484375 14.34765625 C4.89336801 18.31642041 3.71547943 21.43761327 2 25 C1.6596875 25.77730469 1.319375 26.55460937 0.96875 27.35546875 C-1.39033883 32.24101421 -3.65970946 35.3738941 -8.7578125 37.48046875 C-15.48411745 39.03900282 -22.06455853 37.20513839 -28 34 C-31.8147298 30.91020963 -32.62148076 28.56864754 -33.25 23.75 C-33.39953125 22.67234375 -33.5490625 21.5946875 -33.703125 20.484375 C-33.80109375 19.66453125 -33.8990625 18.8446875 -34 18 C-37.03357168 21.3642062 -37.5415399 24.11663665 -38.0625 28.5625 C-38.7926745 34.68901175 -38.7926745 34.68901175 -41 38 C-43.6015625 38.29296875 -43.6015625 38.29296875 -46.625 38.1875 C-48.12933594 38.14689453 -48.12933594 38.14689453 -49.6640625 38.10546875 C-50.43492187 38.07066406 -51.20578125 38.03585938 -52 38 C-52.33 37.01 -52.66 36.02 -53 35 C-53.66 35 -54.32 35 -55 35 C-56.32 30.38 -57.64 25.76 -59 21 C-60.32304671 24.96914013 -61.5442115 28.84660652 -62.625 32.875 C-62.88539063 33.84179688 -63.14578125 34.80859375 -63.4140625 35.8046875 C-63.60742188 36.52914062 -63.80078125 37.25359375 -64 38 C-65.65 37.67 -67.3 37.34 -69 37 C-69 36.34 -69 35.68 -69 35 C-69.99 35 -70.98 35 -72 35 C-70.90523908 26.48700835 -69.24915059 18.13544674 -67.4375 9.75 C-67.10455933 8.19526978 -67.10455933 8.19526978 -66.76489258 6.60913086 C-66.55243896 5.63983643 -66.33998535 4.67054199 -66.12109375 3.671875 C-65.9295874 2.7962793 -65.73808105 1.92068359 -65.54077148 1.01855469 C-65 -1 -65 -1 -64 -2 C-61.7129148 -2.17840434 -59.41860008 -2.26794131 -57.125 -2.3125 C-55.86945313 -2.34988281 -54.61390625 -2.38726562 -53.3203125 -2.42578125 C-50 -2 -50 -2 -48.12890625 -0.31640625 C-45.29537046 5.49773465 -44.65406004 12.60011073 -45 19 C-44.34 19 -43.68 19 -43 19 C-42.95101562 18.39414063 -42.90203125 17.78828125 -42.8515625 17.1640625 C-41.35135135 0.35135135 -41.35135135 0.35135135 -39 -2 C-37.00041636 -2.04080783 -34.99954746 -2.04254356 -33 -2 C-33 -1.01 -33 -0.02 -33 1 C-32.34 1 -31.68 1 -31 1 C-31.33 3.97 -31.66 6.94 -32 10 C-31.443125 8.9275 -30.88625 7.855 -30.3125 6.75 C-27.62971836 2.10672409 -24.8043142 -0.306033 -19.75 -2.25 C-12.46222337 -3.70755533 -6.64363437 -3.77775288 0 0 Z M-11 5 C-12.78403608 6.87405259 -12.78403608 6.87405259 -14.5625 9.25 C-15.18253906 10.03890625 -15.80257812 10.8278125 -16.44140625 11.640625 C-19.19791007 15.81337765 -19.11616444 19.31287175 -19.0625 24.25 C-19.05347656 25.32765625 -19.04445312 26.4053125 -19.03515625 27.515625 C-19.02355469 28.33546875 -19.01195312 29.1553125 -19 30 C-18.01 30 -17.02 30 -16 30 C-10.48895834 24.14451823 -9.1299029 14.87785398 -8.921875 7.06640625 C-8.94765625 6.38449219 -8.9734375 5.70257813 -9 5 C-9.66 5 -10.32 5 -11 5 Z " fill="#F1811C" transform="translate(239,70)"/>
<path d="M0 0 C1.88332031 -0.03867188 1.88332031 -0.03867188 3.8046875 -0.078125 C7.125 0.25 7.125 0.25 8.96484375 1.31640625 C10.70693286 4.21988809 11.17457779 7.12637996 11.8125 10.4375 C12.06386719 11.70980469 12.31523438 12.98210937 12.57421875 14.29296875 C12.75597656 15.26878906 12.93773438 16.24460937 13.125 17.25 C13.40214844 16.10660156 13.67929688 14.96320313 13.96484375 13.78515625 C14.33054378 12.29422535 14.69643929 10.80334239 15.0625 9.3125 C15.24490234 8.55775391 15.42730469 7.80300781 15.61523438 7.02539062 C17.01171875 1.36328125 17.01171875 1.36328125 18.125 0.25 C20.12458364 0.20919217 22.12545254 0.20745644 24.125 0.25 C24.125 1.24 24.125 2.23 24.125 3.25 C24.785 3.25 25.445 3.25 26.125 3.25 C25.795 6.22 25.465 9.19 25.125 12.25 C28.64881687 9.70395403 28.64881687 9.70395403 31.125 6.25 C31.785 6.25 32.445 6.25 33.125 6.25 C33.125 5.59 33.125 4.93 33.125 4.25 C34.36920647 3.7154744 35.62070936 3.19791389 36.875 2.6875 C37.57109375 2.39746094 38.2671875 2.10742188 38.984375 1.80859375 C41.42512784 1.17168197 42.7653655 1.44751169 45.125 2.25 C44.795 2.91 44.465 3.57 44.125 4.25 C43.465 4.25 42.805 4.25 42.125 4.25 C41.94130859 5.31154297 41.94130859 5.31154297 41.75390625 6.39453125 C41.09734397 9.37556869 40.12742615 12.07861225 39.0625 14.9375 C37.13929865 20.54047289 36.65673028 25.37061348 37.125 31.25 C38.445 31.91 39.765 32.57 41.125 33.25 C42.61980306 29.69496838 43.76221296 26.16415112 44.75 22.4375 C45.01039062 21.46167969 45.27078125 20.48585938 45.5390625 19.48046875 C45.73242188 18.74441406 45.92578125 18.00835937 46.125 17.25 C46.785 17.25 47.445 17.25 48.125 17.25 C48.125 12.3 48.125 7.35 48.125 2.25 C49.445 2.25 50.765 2.25 52.125 2.25 C52.125 3.24 52.125 4.23 52.125 5.25 C54.105 5.25 56.085 5.25 58.125 5.25 C58.125 6.57 58.125 7.89 58.125 9.25 C58.785 9.25 59.445 9.25 60.125 9.25 C60.179138 11.49973447 60.21785491 13.74984383 60.25 16 C60.27320312 17.25296875 60.29640625 18.5059375 60.3203125 19.796875 C60.14037302 22.97820492 59.81498582 24.61521896 58.125 27.25 C57.465 27.25 56.805 27.25 56.125 27.25 C55.91875 27.806875 55.7125 28.36375 55.5 28.9375 C53.29983331 32.63778034 49.9883128 35.3183436 46.125 37.25 C32.52233909 38.2269867 32.52233909 38.2269867 27.125 34.25 C23.23469725 30.76214236 23.46938386 26.15777426 23.125 21.25 C22.84785156 22.46558594 22.57070312 23.68117188 22.28515625 24.93359375 C21.91946102 26.51827307 21.55356525 28.10290612 21.1875 29.6875 C21.00509766 30.48994141 20.82269531 31.29238281 20.63476562 32.11914062 C19.23828125 38.13671875 19.23828125 38.13671875 18.125 39.25 C16.02583974 39.42858965 13.91877312 39.51798477 11.8125 39.5625 C10.08580078 39.61857422 10.08580078 39.61857422 8.32421875 39.67578125 C5.125 39.25 5.125 39.25 2.84765625 37.68359375 C0.64503997 34.57196123 -0.17000888 31.68353718 -1.125 28 C-1.46015625 26.73671875 -1.7953125 25.4734375 -2.140625 24.171875 C-2.50414062 22.72554687 -2.50414062 22.72554687 -2.875 21.25 C-3.07996094 22.38179687 -3.28492188 23.51359375 -3.49609375 24.6796875 C-3.76806972 26.16148761 -4.04021387 27.64325685 -4.3125 29.125 C-4.44720703 29.87136719 -4.58191406 30.61773437 -4.72070312 31.38671875 C-5.76171875 37.0234375 -5.76171875 37.0234375 -6.875 39.25 C-8.525 39.25 -10.175 39.25 -11.875 39.25 C-11.875 38.59 -11.875 37.93 -11.875 37.25 C-12.865 36.92 -13.855 36.59 -14.875 36.25 C-13.36377592 27.20555286 -11.72338621 18.20627669 -9.75 9.25 C-9.57952148 8.46705566 -9.40904297 7.68411133 -9.23339844 6.87744141 C-7.67065545 -0.0896583 -7.10061014 0.08712405 0 0 Z " fill="#43B6D6" transform="translate(57.875,68.75)"/>
<path d="M0 0 C5.28 0 10.56 0 16 0 C16 0.99 16 1.98 16 3 C16.66 3 17.32 3 18 3 C18 7.29 18 11.58 18 16 C18.66 16 19.32 16 20 16 C20.10183594 15.29488281 20.20367187 14.58976562 20.30859375 13.86328125 C21.53710754 8.77570721 24.43416054 4.53116331 27 0 C32.28 0 37.56 0 43 0 C43 0.99 43 1.98 43 3 C43.66 3 44.32 3 45 3 C44.2123602 12.29414958 42.49017172 21.33086379 39 30 C38.61127973 31.57520634 38.25517731 33.15894387 37.9375 34.75 C37.10766046 38.89233954 37.10766046 38.89233954 36 40 C34.14712498 40.07226502 32.29166122 40.0838122 30.4375 40.0625 C29.42558594 40.05347656 28.41367187 40.04445312 27.37109375 40.03515625 C26.19740234 40.01775391 26.19740234 40.01775391 25 40 C25 39.01 25 38.02 25 37 C24.01 37 23.02 37 22 37 C22 33.7 22 30.4 22 27 C21.34 27 20.68 27 20 27 C19.71125 27.86625 19.4225 28.7325 19.125 29.625 C18.08333333 32.75 17.04166667 35.875 16 39 C9.54545455 40.33962264 9.54545455 40.33962264 7.34375 38.96875 C5.354925 36.05489011 5.22710943 33.28884059 4.8125 29.8125 C4.65394531 28.54019531 4.49539062 27.26789063 4.33203125 25.95703125 C4.22246094 24.98121094 4.11289063 24.00539063 4 23 C3.67 23 3.34 23 3 23 C2.93941406 23.64066406 2.87882813 24.28132813 2.81640625 24.94140625 C2.32790588 29.98423313 1.76220714 34.9912102 1 40 C-0.65 40 -2.3 40 -4 40 C-4 39.01 -4 38.02 -4 37 C-4.99 37 -5.98 37 -7 37 C-6.31137469 28.9892828 -4.66689417 21.28196777 -2.9375 13.4375 C-2.652578 12.12964802 -2.36806969 10.82170585 -2.08398438 9.51367188 C-1.39337753 6.34156246 -0.69724596 3.17065671 0 0 Z " fill="#F47D14" transform="translate(250,68)"/>
<path d="M0 0 C-0.33 0.66 -0.66 1.32 -1 2 C-1.66 2 -2.32 2 -3 2 C-3.12246094 2.70769531 -3.24492188 3.41539063 -3.37109375 4.14453125 C-4.02765603 7.12556869 -4.99757385 9.82861225 -6.0625 12.6875 C-7.98570135 18.29047289 -8.46826972 23.12061348 -8 29 C-6.68 29.66 -5.36 30.32 -4 31 C-2.50519694 27.44496838 -1.36278704 23.91415112 -0.375 20.1875 C-0.11460938 19.21167969 0.14578125 18.23585938 0.4140625 17.23046875 C0.60742188 16.49441406 0.80078125 15.75835937 1 15 C1.66 15 2.32 15 3 15 C3 10.05 3 5.1 3 0 C4.32 0 5.64 0 7 0 C7 0.99 7 1.98 7 3 C8.98 3 10.96 3 13 3 C13 4.32 13 5.64 13 7 C13.66 7 14.32 7 15 7 C15.054138 9.24973447 15.09285491 11.49984383 15.125 13.75 C15.14820313 15.00296875 15.17140625 16.2559375 15.1953125 17.546875 C15.01537302 20.72820492 14.68998582 22.36521896 13 25 C12.34 25 11.68 25 11 25 C10.690625 25.8353125 10.690625 25.8353125 10.375 26.6875 C8.17483331 30.38778034 4.8633128 33.0683436 1 35 C-12.36475805 35.95989975 -12.36475805 35.95989975 -18 32 C-21.28346505 28.71653495 -20.40933716 24.58724538 -20.4375 20.125 C-20.47037109 19.21363281 -20.50324219 18.30226563 -20.53710938 17.36328125 C-20.59155705 10.60186946 -20.59155705 10.60186946 -17.53515625 7.4921875 C-16.69855469 6.99976562 -15.86195312 6.50734375 -15 6 C-14.67 5.34 -14.34 4.68 -14 4 C-13.34 4 -12.68 4 -12 4 C-12 3.34 -12 2.68 -12 2 C-10.75579353 1.4654744 -9.50429064 0.94791389 -8.25 0.4375 C-7.55390625 0.14746094 -6.8578125 -0.14257812 -6.140625 -0.44140625 C-3.69987216 -1.07831803 -2.3596345 -0.80248831 0 0 Z " fill="#0BB2E2" transform="translate(103,71)"/>
<path d="M0 0 C2.62527189 -0.05382106 5.24944713 -0.09358313 7.875 -0.125 C8.62136719 -0.14175781 9.36773437 -0.15851563 10.13671875 -0.17578125 C12.09194461 -0.1933959 14.04742021 -0.10320189 16 0 C18 2 18 2 18.08422852 3.88623047 C17.22745841 11.42299571 15.64173608 18.73865894 13.9375 26.125 C13.65583984 27.36765625 13.37417969 28.6103125 13.08398438 29.890625 C12.39466567 32.92830067 11.69807714 35.96432511 11 39 C6.71 39 2.42 39 -2 39 C-2 38.34 -2 37.68 -2 37 C-2.99 37 -3.98 37 -5 37 C-4.34034961 30.13963599 -2.7637236 23.65556077 -1 17 C-1.66 17 -2.32 17 -3 17 C-3 17.66 -3 18.32 -3 19 C-3.99 19 -4.98 19 -6 19 C-5.82703776 11.46828078 -4.12206799 6.29718136 0 0 Z " fill="#0BB2E2" transform="translate(153,69)"/>
<path d="M0 0 C1.93166016 0.01740234 1.93166016 0.01740234 3.90234375 0.03515625 C5.19269531 0.04417969 6.48304688 0.05320312 7.8125 0.0625 C8.81152344 0.07410156 9.81054688 0.08570312 10.83984375 0.09765625 C10.96101563 0.88269531 11.0821875 1.66773437 11.20703125 2.4765625 C12.25423488 9.28952855 12.25423488 9.28952855 13.90234375 15.97265625 C14.81326768 19.00906934 15.38133239 21.96449526 15.83984375 25.09765625 C16.49984375 24.76765625 17.15984375 24.43765625 17.83984375 24.09765625 C18.49539494 21.5703239 18.49539494 21.5703239 18.83984375 19.09765625 C19.49984375 19.09765625 20.15984375 19.09765625 20.83984375 19.09765625 C20.83984375 22.39765625 20.83984375 25.69765625 20.83984375 29.09765625 C20.17984375 29.09765625 19.51984375 29.09765625 18.83984375 29.09765625 C18.83984375 31.07765625 18.83984375 33.05765625 18.83984375 35.09765625 C14.87984375 35.09765625 10.91984375 35.09765625 6.83984375 35.09765625 C6.83984375 32.78765625 6.83984375 30.47765625 6.83984375 28.09765625 C6.17984375 28.09765625 5.51984375 28.09765625 4.83984375 28.09765625 C4.63488281 27.47117187 4.42992187 26.8446875 4.21875 26.19921875 C3.94933594 25.38195312 3.67992187 24.5646875 3.40234375 23.72265625 C3.13550781 22.91054687 2.86867187 22.0984375 2.59375 21.26171875 C1.88804646 19.08733826 1.88804646 19.08733826 0.83984375 17.09765625 C-0.15015625 16.76765625 -1.14015625 16.43765625 -2.16015625 16.09765625 C-2.13953125 17.23203125 -2.11890625 18.36640625 -2.09765625 19.53515625 C-2.16015625 23.09765625 -2.16015625 23.09765625 -3.16015625 24.09765625 C-3.39302633 25.77949573 -3.57279791 27.46889785 -3.72265625 29.16015625 C-3.84833984 30.53880859 -3.84833984 30.53880859 -3.9765625 31.9453125 C-4.03714844 32.65558594 -4.09773437 33.36585937 -4.16015625 34.09765625 C-6.63515625 34.59265625 -6.63515625 34.59265625 -9.16015625 35.09765625 C-9.50909355 27.03531587 -8.55640977 19.81283657 -6.72265625 11.97265625 C-6.49255859 10.93367188 -6.26246094 9.8946875 -6.02539062 8.82421875 C-4.06134863 0.12550521 -4.06134863 0.12550521 0 0 Z " fill="#F37D14" transform="translate(178.16015625,67.90234375)"/>
<path d="M0 0 C1.98 0 3.96 0 6 0 C4.54720639 12.32196611 2.96837792 24.1955865 -1 36 C-2.60379341 36.05416188 -4.20811406 36.09286638 -5.8125 36.125 C-6.70582031 36.14820313 -7.59914063 36.17140625 -8.51953125 36.1953125 C-11 36 -11 36 -14 34 C-16.47822982 28.78267406 -16.20063334 23.64002624 -16 18 C-16.66 18 -17.32 18 -18 18 C-18.33 15.36 -18.66 12.72 -19 10 C-20.65 10 -22.3 10 -24 10 C-23.67 7.03 -23.34 4.06 -23 1 C-21.20906809 0.91913853 -19.41710372 0.86087298 -17.625 0.8125 C-16.12839844 0.76029297 -16.12839844 0.76029297 -14.6015625 0.70703125 C-13.74304687 0.80371094 -12.88453125 0.90039062 -12 1 C-7.99989333 7.00016001 -7.68525774 14.91829912 -8 22 C-6.68 22.66 -5.36 23.32 -4 24 C-2.80461073 20.4138322 -2.43070474 16.86001764 -2 13.125 C-1.48580249 8.71414946 -0.95358661 4.34222473 0 0 Z " fill="#09B3E3" transform="translate(75,70)"/>
<path d="M0 0 C1.4540625 0.0309375 1.4540625 0.0309375 2.9375 0.0625 C2.9375 1.0525 2.9375 2.0425 2.9375 3.0625 C3.5975 3.0625 4.2575 3.0625 4.9375 3.0625 C3.375 19.625 3.375 19.625 -1.0625 24.0625 C-1.47143646 26.19521723 -1.79344569 28.34516321 -2.0625 30.5 C-2.84241747 36.7323762 -2.84241747 36.7323762 -5.0625 40.0625 C-7.6640625 40.35546875 -7.6640625 40.35546875 -10.6875 40.25 C-12.19183594 40.20939453 -12.19183594 40.20939453 -13.7265625 40.16796875 C-14.49742187 40.13316406 -15.26828125 40.09835938 -16.0625 40.0625 C-16.3925 39.0725 -16.7225 38.0825 -17.0625 37.0625 C-17.7225 37.0625 -18.3825 37.0625 -19.0625 37.0625 C-20.3825 32.4425 -21.7025 27.8225 -23.0625 23.0625 C-24.38554671 27.03164013 -25.6067115 30.90910652 -26.6875 34.9375 C-26.94789063 35.90429688 -27.20828125 36.87109375 -27.4765625 37.8671875 C-27.66992188 38.59164062 -27.86328125 39.31609375 -28.0625 40.0625 C-29.7125 39.7325 -31.3625 39.4025 -33.0625 39.0625 C-33.0625 38.4025 -33.0625 37.7425 -33.0625 37.0625 C-34.0525 37.0625 -35.0425 37.0625 -36.0625 37.0625 C-35.7325 34.4225 -35.4025 31.7825 -35.0625 29.0625 C-34.7325 29.0625 -34.4025 29.0625 -34.0625 29.0625 C-34.0625 31.0425 -34.0625 33.0225 -34.0625 35.0625 C-32.0825 34.5675 -32.0825 34.5675 -30.0625 34.0625 C-30.00191406 33.35222656 -29.94132813 32.64195313 -29.87890625 31.91015625 C-29.79511719 30.99105469 -29.71132812 30.07195312 -29.625 29.125 C-29.54378906 28.20847656 -29.46257812 27.29195312 -29.37890625 26.34765625 C-29.0625 24.0625 -29.0625 24.0625 -28.0625 23.0625 C-27.69489269 20.73432036 -27.36008419 18.4006615 -27.0625 16.0625 C-25.25 16.125 -25.25 16.125 -23.0625 17.0625 C-20.96580932 21.03123594 -20.0625 23.54688726 -20.0625 28.0625 C-19.4025 28.0625 -18.7425 28.0625 -18.0625 28.0625 C-18.0625 30.3725 -18.0625 32.6825 -18.0625 35.0625 C-14.1025 35.0625 -10.1425 35.0625 -6.0625 35.0625 C-6.0625 33.0825 -6.0625 31.1025 -6.0625 29.0625 C-5.4025 29.0625 -4.7425 29.0625 -4.0625 29.0625 C-4.0625 25.7625 -4.0625 22.4625 -4.0625 19.0625 C-4.7225 19.0625 -5.3825 19.0625 -6.0625 19.0625 C-6.0625 20.7125 -6.0625 22.3625 -6.0625 24.0625 C-7.0525 24.3925 -8.0425 24.7225 -9.0625 25.0625 C-9.26746094 24.20785156 -9.47242188 23.35320312 -9.68359375 22.47265625 C-9.95300781 21.36792969 -10.22242188 20.26320313 -10.5 19.125 C-10.76683594 18.02285156 -11.03367188 16.92070313 -11.30859375 15.78515625 C-11.79245725 13.16828746 -11.79245725 13.16828746 -13.0625 12.0625 C-13.29613881 10.21358054 -13.47553635 8.35761969 -13.625 6.5 C-13.75068359 4.98212891 -13.75068359 4.98212891 -13.87890625 3.43359375 C-13.93949219 2.65113281 -14.00007813 1.86867188 -14.0625 1.0625 C-9.68898357 4.6451888 -9.7221367 9.7399142 -9.0625 15.0625 C-8.9375 18.75 -8.9375 18.75 -9.0625 21.0625 C-8.4025 21.0625 -7.7425 21.0625 -7.0625 21.0625 C-7.01351562 20.45664063 -6.96453125 19.85078125 -6.9140625 19.2265625 C-5.2079454 0.1062846 -5.2079454 0.1062846 0 0 Z " fill="#E08330" transform="translate(203.0625,67.9375)"/>
<path d="M0 0 C0.99773437 0.02320312 1.99546875 0.04640625 3.0234375 0.0703125 C4.52777344 0.09738281 4.52777344 0.09738281 6.0625 0.125 C6.83335937 0.14820312 7.60421875 0.17140625 8.3984375 0.1953125 C9.58539303 3.75617908 9.74939168 7.16862274 9.9609375 10.8828125 C10.00412109 11.58470703 10.04730469 12.28660156 10.09179688 13.00976562 C10.1976111 14.73806456 10.29850331 16.4666636 10.3984375 18.1953125 C12.0484375 18.1953125 13.6984375 18.1953125 15.3984375 18.1953125 C13.6484375 24.9453125 13.6484375 24.9453125 11.3984375 27.1953125 C10.99796306 29.51806427 10.6587271 31.85270607 10.3984375 34.1953125 C3.7734375 36.3203125 3.7734375 36.3203125 0.3984375 35.1953125 C-2.29691261 27.10926216 -1.77346967 17.65696521 -1.6015625 9.1953125 C-2.5915625 8.8653125 -3.5815625 8.5353125 -4.6015625 8.1953125 C-4.7265625 5.3203125 -4.7265625 5.3203125 -4.6015625 2.1953125 C-2.6015625 0.1953125 -2.6015625 0.1953125 0 0 Z " fill="#11B3E1" transform="translate(131.6015625,70.8046875)"/>
<path d="M0 0 C3.55539687 3.20929629 5.767841 6.14272796 6.37109375 10.96875 C6.37457925 13.67349751 6.26707621 16.30945452 6 19 C5.34 19 4.68 19 4 19 C4.2475 20.423125 4.2475 20.423125 4.5 21.875 C4.51039061 26.95600875 1.39947095 30.19837196 -1.78515625 33.88671875 C-5.85282438 37.76786242 -9.54281557 37.88435044 -14.9375 38.3125 C-19.4194115 38.19870147 -22.93734305 36.85314177 -27 35 C-27.33 34.34 -27.66 33.68 -28 33 C-27.20722656 33.23783203 -27.20722656 33.23783203 -26.3984375 33.48046875 C-20.10699373 34.84327335 -13.27895403 35.07950454 -7.4375 32.3125 C-5.02803749 30.02659967 -3.03594889 27.61764858 -1 25 C-0.34 25 0.32 25 1 25 C2.1161656 21.28570102 2.3124195 17.60838492 2.5625 13.75 C2.64628906 12.48671875 2.73007813 11.2234375 2.81640625 9.921875 C2.90728516 8.47554687 2.90728516 8.47554687 3 7 C2.34 7 1.68 7 1 7 C1 5.68 1 4.36 1 3 C-0.98 3 -2.96 3 -5 3 C-5 2.01 -5 1.02 -5 0 C-6.32 0 -7.64 0 -9 0 C-8.67 0.99 -8.34 1.98 -8 3 C-7.88259878 4.684571 -7.82493455 6.37388877 -7.8125 8.0625 C-7.79832031 8.94035156 -7.78414062 9.81820312 -7.76953125 10.72265625 C-8 13 -8 13 -10 15 C-9.67 11.7 -9.34 8.4 -9 5 C-16.33400656 10.81662589 -16.75545282 21.34673667 -18 30 C-17.34 30.33 -16.68 30.66 -16 31 C-19.875 30.125 -19.875 30.125 -21 29 C-22.2460689 19.25614977 -18.58159924 10.85719811 -15 2 C-14.34 2 -13.68 2 -13 2 C-13 1.34 -13 0.68 -13 0 C-18.55053286 0.74359673 -18.55053286 0.74359673 -24 2 C-24 2.66 -24 3.32 -24 4 C-24.66 4 -25.32 4 -26 4 C-26.268125 4.639375 -26.53625 5.27875 -26.8125 5.9375 C-28 8 -28 8 -31 9 C-29.65367268 4.28785439 -27.0714519 1.57045581 -23 -1 C-15.26904511 -4.06320854 -7.23460113 -4.36806106 0 0 Z " fill="#40B2D2" transform="translate(115,71)"/>
<path d="M0 0 C10.26552463 1.32847966 10.26552463 1.32847966 13.1875 4 C14.94612956 10.49340144 14.74604023 17.03086375 12.03515625 23.234375 C10.08465231 26.56127229 8.38289154 28.02132759 5 30 C2.1026221 30.10441001 -0.13226145 29.64276898 -3 29 C-2.88637738 27.5199159 -2.75877092 26.04089926 -2.625 24.5625 C-2.55539063 23.73878906 -2.48578125 22.91507813 -2.4140625 22.06640625 C-2.20910156 21.04353516 -2.20910156 21.04353516 -2 20 C-1.34 19.67 -0.68 19.34 0 19 C0 12.73 0 6.46 0 0 Z " fill="#F37D14" transform="translate(230,70)"/>
<path d="M0 0 C0.33 0.66 0.66 1.32 1 2 C-2.3 1.34 -5.6 0.68 -9 0 C-8.67 0.66 -8.34 1.32 -8 2 C-7.92805131 4.88370333 -7.90708292 7.74239664 -7.9375 10.625 C-7.94201172 11.42679688 -7.94652344 12.22859375 -7.95117188 13.0546875 C-7.96296832 15.03649006 -7.98090395 17.01825433 -8 19 C-8.99 19.33 -9.98 19.66 -11 20 C-11.33 22.97 -11.66 25.94 -12 29 C-6.63909407 29.53673893 -6.63909407 29.53673893 -2 27.5 C-1.67 27.005 -1.34 26.51 -1 26 C-0.34 26.33 0.32 26.66 1 27 C-1.38027274 32.1572576 -3.43630554 35.11645101 -8.72265625 37.41015625 C-15.41715766 39.14406656 -22.06090815 37.15909141 -28 34 C-28.33 33.34 -28.66 32.68 -29 32 C-26.03 32 -23.06 32 -20 32 C-20.66 31.34 -21.32 30.68 -22 30 C-22.046875 26.953125 -22.046875 26.953125 -21.75 23.25 C-21.66234375 22.03828125 -21.5746875 20.8265625 -21.484375 19.578125 C-21.02135958 16.15778526 -20.20668407 13.2244181 -19 10 C-18.34 10 -17.68 10 -17 10 C-16.71125 8.88625 -16.4225 7.7725 -16.125 6.625 C-15 3 -15 3 -13 1 C-16.81756824 -0.37432457 -20.07255329 0.32024961 -24 1 C-23 -1 -23 -1 -20 -2.125 C-12.73557924 -3.98576352 -6.60247905 -3.57634282 0 0 Z M-11 5 C-12.78403608 6.87405259 -12.78403608 6.87405259 -14.5625 9.25 C-15.18253906 10.03890625 -15.80257812 10.8278125 -16.44140625 11.640625 C-19.19791007 15.81337765 -19.11616444 19.31287175 -19.0625 24.25 C-19.05347656 25.32765625 -19.04445312 26.4053125 -19.03515625 27.515625 C-19.02355469 28.33546875 -19.01195312 29.1553125 -19 30 C-18.01 30 -17.02 30 -16 30 C-10.48895834 24.14451823 -9.1299029 14.87785398 -8.921875 7.06640625 C-8.94765625 6.38449219 -8.9734375 5.70257813 -9 5 C-9.66 5 -10.32 5 -11 5 Z " fill="#E48A39" transform="translate(239,70)"/>
<path d="M0 0 C4.29 0 8.58 0 13 0 C12.43393721 4.69023454 11.81462495 9.34500026 11 14 C10.01 14 9.02 14 8 14 C7.67 14.99 7.34 15.98 7 17 C5.01751285 17.71706982 3.01584651 18.38290413 1 19 C0.34 19.66 -0.32 20.32 -1 21 C-0.67 17.7 -0.34 14.4 0 11 C-0.66 10.67 -1.32 10.34 -2 10 C-1.67 9.34 -1.34 8.68 -1 8 C-1.66 8 -2.32 8 -3 8 C-3 7.01 -3 6.02 -3 5 C-2.34 5 -1.68 5 -1 5 C-0.67 3.35 -0.34 1.7 0 0 Z " fill="#0AB2E3" transform="translate(154,70)"/>
<path d="M0 0 C0.33 0 0.66 0 1 0 C1.09038099 5.15171623 0.84681133 9.91913204 0 15 C0.99 15 1.98 15 3 15 C3 12.69 3 10.38 3 8 C3.66 8 4.32 8 5 8 C7.20949832 12.41029783 7.2370648 16.48940324 7.125 21.3125 C7.11597656 22.05306641 7.10695313 22.79363281 7.09765625 23.55664062 C7.07424213 25.37123467 7.03837615 27.18566071 7 29 C6.67 29 6.34 29 6 29 C5.67 25.7 5.34 22.4 5 19 C4.67 19 4.34 19 4 19 C3.93941406 19.64066406 3.87882813 20.28132813 3.81640625 20.94140625 C3.32790588 25.98423313 2.76220714 30.9912102 2 36 C0.35 36 -1.3 36 -3 36 C-3 35.01 -3 34.02 -3 33 C-3.99 33 -4.98 33 -6 33 C-5.33020896 25.67849106 -3.98329403 18.62089577 -2.4375 11.4375 C-2.20353516 10.33341797 -1.96957031 9.22933594 -1.72851562 8.09179688 C-1.15618938 5.39368745 -0.57993998 2.69648125 0 0 Z " fill="#E79951" transform="translate(249,72)"/>
<path d="M0 0 C4.62 0 9.24 0 14 0 C14 0.66 14 1.32 14 2 C14.99 2 15.98 2 17 2 C17.66 5.3 18.32 8.6 19 12 C19.66 11.34 20.32 10.68 21 10 C20.67 12.64 20.34 15.28 20 18 C20.99 18 21.98 18 23 18 C23 17.34 23 16.68 23 16 C23.66 16 24.32 16 25 16 C24.9129995 17.62600941 24.8048219 19.25089678 24.6875 20.875 C24.62949219 21.77992187 24.57148438 22.68484375 24.51171875 23.6171875 C24 26 24 26 21 28 C19.55577774 30.40485798 19.55577774 30.40485798 18.3125 33.125 C17.87550781 34.03507812 17.43851563 34.94515625 16.98828125 35.8828125 C16.66214844 36.58148438 16.33601563 37.28015625 16 38 C13.36 38 10.72 38 8 38 C8 37.34 8 36.68 8 36 C10.97 35.505 10.97 35.505 14 35 C14.12375 33.88625 14.2475 32.7725 14.375 31.625 C15 28 15 28 17 26 C18.03842565 23.68351201 19.0421975 21.35096976 20 19 C19.195625 19.185625 18.39125 19.37125 17.5625 19.5625 C16.716875 19.706875 15.87125 19.85125 15 20 C13.48578999 18.48578999 13.78690144 17.07527232 13.68359375 14.96484375 C13.62075195 13.75151367 13.62075195 13.75151367 13.55664062 12.51367188 C13.51732422 11.66353516 13.47800781 10.81339844 13.4375 9.9375 C13.39431641 9.08349609 13.35113281 8.22949219 13.30664062 7.34960938 C13.20023298 5.23327963 13.09958269 3.11666187 13 1 C11.20793453 1.14084796 9.41635083 1.28783701 7.625 1.4375 C6.12839844 1.55931641 6.12839844 1.55931641 4.6015625 1.68359375 C2.02072387 1.84965626 2.02072387 1.84965626 0 3 C0 2.01 0 1.02 0 0 Z " fill="#30AED0" transform="translate(127,70)"/>
<path d="M0 0 C5.28 0 10.56 0 16 0 C16 0.99 16 1.98 16 3 C16.66 3 17.32 3 18 3 C17.2123602 12.29414958 15.49017172 21.33086379 12 30 C11.61127973 31.57520634 11.25517731 33.15894387 10.9375 34.75 C10.10766046 38.89233954 10.10766046 38.89233954 9 40 C7.14712498 40.07226502 5.29166122 40.0838122 3.4375 40.0625 C2.42558594 40.05347656 1.41367187 40.04445312 0.37109375 40.03515625 C-0.80259766 40.01775391 -0.80259766 40.01775391 -2 40 C-2 39.01 -2 38.02 -2 37 C-2.99 37 -3.98 37 -5 37 C-4.67 35.68 -4.34 34.36 -4 33 C-4 33.99 -4 34.98 -4 36 C0.29 36 4.58 36 9 36 C9.12375 34.700625 9.2475 33.40125 9.375 32.0625 C9.72882175 28.82755832 10.24289639 25.7265151 11 22.5625 C12.14016101 17.74659603 12.60916756 12.92654578 13 8 C13.66 8 14.32 8 15 8 C15 5.69 15 3.38 15 1 C10.05 1.33 5.1 1.66 0 2 C0 1.34 0 0.68 0 0 Z " fill="#B09F8D" transform="translate(277,68)"/>
<path d="M0 0 C1.98 0 3.96 0 6 0 C4.54720639 12.32196611 2.96837792 24.1955865 -1 36 C-2.62463842 36.05395478 -4.24978541 36.09277195 -5.875 36.125 C-6.77992187 36.14820313 -7.68484375 36.17140625 -8.6171875 36.1953125 C-11 36 -11 36 -13 34 C-9.57067929 32.28533964 -5.78283935 32.94595944 -2 33 C-1.34 28.05 -0.68 23.1 0 18 C-0.66 18 -1.32 18 -2 18 C-2.23268915 11.71739294 -1.40454548 6.11980533 0 0 Z " fill="#43B3D3" transform="translate(75,70)"/>
<path d="M0 0 C1.48828125 1.14453125 1.48828125 1.14453125 3 3 C3.29296875 5.69921875 3.29296875 5.69921875 3.1875 8.6875 C3.14689453 10.17830078 3.14689453 10.17830078 3.10546875 11.69921875 C3.07066406 12.45847656 3.03585938 13.21773437 3 14 C2.34 14 1.68 14 1 14 C1.2475 15.423125 1.2475 15.423125 1.5 16.875 C1.51039061 21.95600875 -1.60052905 25.19837196 -4.78515625 28.88671875 C-8.85282438 32.76786242 -12.54281557 32.88435044 -17.9375 33.3125 C-22.4194115 33.19870147 -25.93734305 31.85314177 -30 30 C-30.33 29.34 -30.66 28.68 -31 28 C-30.20722656 28.23783203 -30.20722656 28.23783203 -29.3984375 28.48046875 C-23.10699373 29.84327335 -16.27895403 30.07950454 -10.4375 27.3125 C-8.02803749 25.02659967 -6.03594889 22.61764858 -4 20 C-3.34 20 -2.68 20 -2 20 C-0.89210465 15.94691667 -0.66268733 11.92888626 -0.4375 7.75 C-0.39431641 7.00492187 -0.35113281 6.25984375 -0.30664062 5.4921875 C-0.20103275 3.661651 -0.10005799 1.83084824 0 0 Z " fill="#85A1AC" transform="translate(118,76)"/>
<path d="M0 0 C1.98 0 3.96 0 6 0 C6 0.99 6 1.98 6 3 C6.66 3 7.32 3 8 3 C7.9278125 3.69222656 7.855625 4.38445312 7.78125 5.09765625 C6.99068039 13.43157759 6.8971812 21.63740393 7 30 C6.67 30 6.34 30 6 30 C5.67 27.03 5.34 24.06 5 21 C4.58427734 22.82337891 4.58427734 22.82337891 4.16015625 24.68359375 C3.79446102 26.26827307 3.42856525 27.85290612 3.0625 29.4375 C2.88009766 30.23994141 2.69769531 31.04238281 2.50976562 31.86914062 C1.11328125 37.88671875 1.11328125 37.88671875 0 39 C-2.18639453 39.07258946 -4.37500389 39.08373783 -6.5625 39.0625 C-8.35880859 39.04896484 -8.35880859 39.04896484 -10.19140625 39.03515625 C-11.11824219 39.02355469 -12.04507813 39.01195312 -13 39 C-13 38.34 -13 37.68 -13 37 C-9.37 37 -5.74 37 -2 37 C-1.87625 35.989375 -1.7525 34.97875 -1.625 33.9375 C-1 30 -1 30 -0.05859375 26.86328125 C1.25188965 22.39393717 1.89045367 17.85120609 2.5625 13.25 C2.81144923 11.56735854 3.06265624 9.88504917 3.31640625 8.203125 C3.42412354 7.46739258 3.53184082 6.73166016 3.64282227 5.97363281 C4 4 4 4 5 1 C3.35 1 1.7 1 0 1 C0 0.67 0 0.34 0 0 Z " fill="#8BB1BA" transform="translate(76,69)"/>
<path d="M0 0 C0.33 0 0.66 0 1 0 C1.33 3.3 1.66 6.6 2 10 C3.32 10.33 4.64 10.66 6 11 C6 12.65 6 14.3 6 16 C4.68 15.67 3.36 15.34 2 15 C2.020625 16.134375 2.04125 17.26875 2.0625 18.4375 C2 22 2 22 1 23 C0.76712992 24.68183948 0.58735834 26.3712416 0.4375 28.0625 C0.31181641 29.44115234 0.31181641 29.44115234 0.18359375 30.84765625 C0.12300781 31.55792969 0.06242188 32.26820312 0 33 C-2.475 33.495 -2.475 33.495 -5 34 C-5.35984568 25.90247271 -4.36708416 18.67948432 -2.5 10.8125 C-2.26152344 9.76513672 -2.02304688 8.71777344 -1.77734375 7.63867188 C-1.19541385 5.0898189 -0.60288048 2.54396324 0 0 Z " fill="#D88639" transform="translate(174,69)"/>
<path d="M0 0 C5.28 0 10.56 0 16 0 C16 0.99 16 1.98 16 3 C16.66 3 17.32 3 18 3 C18 7.29 18 11.58 18 16 C18.66 16 19.32 16 20 16 C20.103125 15.278125 20.20625 14.55625 20.3125 13.8125 C21.05986932 10.75508007 22.28045189 8.61670365 24 6 C25 8 25 8 24.0625 11.125 C23.5365625 12.548125 23.5365625 12.548125 23 14 C23.99 14.33 24.98 14.66 26 15 C25.34 15 24.68 15 24 15 C24 15.66 24 16.32 24 17 C24.66 17 25.32 17 26 17 C25.88512252 18.58409994 25.75765492 20.16728963 25.625 21.75 C25.55539062 22.63171875 25.48578125 23.5134375 25.4140625 24.421875 C25.00149945 26.99066382 24.28839043 28.75841015 23 31 C22.67 29.68 22.34 28.36 22 27 C21.34 27 20.68 27 20 27 C20.66666667 23.66666667 21.33333333 20.33333333 22 17 C20.02 17.66 18.04 18.32 16 19 C15.86722656 18.01257813 15.73445313 17.02515625 15.59765625 16.0078125 C15.42105469 14.72648437 15.24445313 13.44515625 15.0625 12.125 C14.88847656 10.84882812 14.71445312 9.57265625 14.53515625 8.2578125 C14.18566773 5.12440546 14.18566773 5.12440546 13 3 C10.19019327 2.30772968 10.19019327 2.30772968 6.9375 1.875 C5.28041016 1.62363281 5.28041016 1.62363281 3.58984375 1.3671875 C2.73519531 1.24601562 1.88054687 1.12484375 1 1 C0.67 1.99 0.34 2.98 0 4 C0 2.68 0 1.36 0 0 Z " fill="#D49861" transform="translate(250,68)"/>
<path d="M0 0 C1.8125 0.0625 1.8125 0.0625 4 1 C6.09669068 4.96873594 7 7.48438726 7 12 C7.66 12 8.32 12 9 12 C8.67 14.31 8.34 16.62 8 19 C5.78600697 15.20458337 4.99019802 11.24370579 4 7 C2.03707012 12.58680041 0.52601632 18.28252551 -1 24 C-2.65 23.67 -4.3 23.34 -6 23 C-6 22.34 -6 21.68 -6 21 C-6.99 21 -7.98 21 -9 21 C-8.67 18.36 -8.34 15.72 -8 13 C-7.67 13 -7.34 13 -7 13 C-7 14.98 -7 16.96 -7 19 C-5.68 18.67 -4.36 18.34 -3 18 C-2.93941406 17.28972656 -2.87882813 16.57945313 -2.81640625 15.84765625 C-2.73261719 14.92855469 -2.64882812 14.00945312 -2.5625 13.0625 C-2.48128906 12.14597656 -2.40007812 11.22945312 -2.31640625 10.28515625 C-2 8 -2 8 -1 7 C-0.63239269 4.67182036 -0.29758419 2.3381615 0 0 Z " fill="#B8987D" transform="translate(176,84)"/>
<path d="M0 0 C-0.54111508 8.2368418 -2.20962664 16.09444911 -4.0625 24.125 C-4.34416016 25.36765625 -4.62582031 26.6103125 -4.91601562 27.890625 C-5.60533433 30.92830067 -6.30192286 33.96432511 -7 37 C-11.29 37 -15.58 37 -20 37 C-20 36.34 -20 35.68 -20 35 C-16.37 35 -12.74 35 -9 35 C-8.896875 33.845 -8.79375 32.69 -8.6875 31.5 C-7.88600163 24.26361472 -6.40858157 17.13729736 -5 10 C-4.81179687 9.01128906 -4.62359375 8.02257812 -4.4296875 7.00390625 C-4.02312335 4.98721901 -3.52355908 2.9895245 -3 1 C-1 0 -1 0 0 0 Z " fill="#96A7AB" transform="translate(171,71)"/>
<path d="M0 0 C0.33 0.66 0.66 1.32 1 2 C-2.3 1.34 -5.6 0.68 -9 0 C-8.67 0.66 -8.34 1.32 -8 2 C-7.92805131 4.88370333 -7.90708292 7.74239664 -7.9375 10.625 C-7.94201172 11.42679688 -7.94652344 12.22859375 -7.95117188 13.0546875 C-7.96296832 15.03649006 -7.98090395 17.01825433 -8 19 C-8.99 19.33 -9.98 19.66 -11 20 C-10.67 14.39 -10.34 8.78 -10 3 C-11.65 3.66 -13.3 4.32 -15 5 C-14.34 3.68 -13.68 2.36 -13 1 C-16.81756824 -0.37432457 -20.07255329 0.32024961 -24 1 C-23 -1 -23 -1 -20 -2.125 C-12.73557924 -3.98576352 -6.60247905 -3.57634282 0 0 Z " fill="#E79C56" transform="translate(239,70)"/>
<path d="M0 0 C1.4540625 0.0309375 1.4540625 0.0309375 2.9375 0.0625 C2.9375 1.0525 2.9375 2.0425 2.9375 3.0625 C3.5975 3.0625 4.2575 3.0625 4.9375 3.0625 C3.375 19.625 3.375 19.625 -1.0625 24.0625 C-1.75998583 25.37997324 -2.43209957 26.71164193 -3.0625 28.0625 C-2.39219264 21.96623091 -1.30214287 16.05327746 0 10.0625 C0.18626953 9.19238281 0.37253906 8.32226562 0.56445312 7.42578125 C1.0191125 5.30403748 1.47787805 3.18317429 1.9375 1.0625 C0.6175 1.0625 -0.7025 1.0625 -2.0625 1.0625 C-2.18625 2.25875 -2.31 3.455 -2.4375 4.6875 C-2.88575054 8.33846813 -3.76696837 11.60774899 -5.0625 15.0625 C-6.17813018 11.69203982 -5.93093709 9.32230759 -5.1875 5.875 C-5.00445312 4.99457031 -4.82140625 4.11414063 -4.6328125 3.20703125 C-3.74669732 -0.12500459 -3.61009247 0.07367536 0 0 Z " fill="#C6A07E" transform="translate(203.0625,67.9375)"/>
<path d="M0 0 C1.65 0.33 3.3 0.66 5 1 C4.401875 1.639375 3.80375 2.27875 3.1875 2.9375 C-1.87176987 10.02047781 -2.78490487 18.55151503 -4 27 C-3.34 27.33 -2.68 27.66 -2 28 C-5.875 27.125 -5.875 27.125 -7 26 C-8.07015091 17.63177077 -6.21055464 8.61277778 -1.36328125 1.6484375 C-0.91339844 1.10445313 -0.46351562 0.56046875 0 0 Z " fill="#9EAAAD" transform="translate(101,74)"/>
<path d="M0 0 C0.66 0 1.32 0 2 0 C4.20949832 4.41029783 4.2370648 8.48940324 4.125 13.3125 C4.11597656 14.05306641 4.10695313 14.79363281 4.09765625 15.55664062 C4.07424213 17.37123467 4.03837615 19.18566071 4 21 C3.67 21 3.34 21 3 21 C2.67 17.7 2.34 14.4 2 11 C1.67 11 1.34 11 1 11 C0.93941406 11.64066406 0.87882813 12.28132813 0.81640625 12.94140625 C0.32790588 17.98423313 -0.23779286 22.9912102 -1 28 C-2.65 28 -4.3 28 -6 28 C-6 27.01 -6 26.02 -6 25 C-6.99 25 -7.98 25 -9 25 C-9 23.35 -9 21.7 -9 20 C-8.67 21.32 -8.34 22.64 -8 24 C-6.02463255 23.65213292 -6.02463255 23.65213292 -4 23 C-2.78447299 20.56894599 -2.75125924 18.7119695 -2.5625 16 C-2.11679479 10.55808312 -1.18954436 5.32407716 0 0 Z " fill="#BE9065" transform="translate(252,80)"/>
<path d="M0 0 C0.33 0 0.66 0 1 0 C0.28621973 8.13709505 -1.32773882 16.01731928 -3 24 C-7.29 24 -11.58 24 -16 24 C-15.37679879 17.56025419 -14.35991738 11.32427599 -13 5 C-13.66 5 -14.32 5 -15 5 C-15 4.34 -15 3.68 -15 3 C-14.34 3 -13.68 3 -13 3 C-13 2.34 -13 1.68 -13 1 C-12.34 1 -11.68 1 -11 1 C-11.33 5.95 -11.66 10.9 -12 16 C-12.66 16 -13.32 16 -14 16 C-14.33 18.31 -14.66 20.62 -15 23 C-11.7 23 -8.4 23 -5 23 C-4.67 19.37 -4.34 15.74 -4 12 C-3.34 12 -2.68 12 -2 12 C-2.02320313 11.30132812 -2.04640625 10.60265625 -2.0703125 9.8828125 C-2.08835937 8.97273438 -2.10640625 8.06265625 -2.125 7.125 C-2.14820313 6.22007813 -2.17140625 5.31515625 -2.1953125 4.3828125 C-2 2 -2 2 0 0 Z " fill="#DC8537" transform="translate(289,80)"/>
<path d="M0 0 C0.66 0.33 1.32 0.66 2 1 C1.01 1.66 0.02 2.32 -1 3 C-1.41480107 5.02887311 -1.41480107 5.02887311 -1.29296875 7.3515625 C-1.28330078 8.20234375 -1.27363281 9.053125 -1.26367188 9.9296875 C-1.23853516 10.81914063 -1.21339844 11.70859375 -1.1875 12.625 C-1.17396484 13.5221875 -1.16042969 14.419375 -1.14648438 15.34375 C-1.11106925 17.56309789 -1.06168461 19.78125188 -1 22 C-0.34 22.33 0.32 22.66 1 23 C1 23.66 1 24.32 1 25 C2.32 25 3.64 25 5 25 C5 25.66 5 26.32 5 27 C8.3 27 11.6 27 15 27 C15 26.34 15 25.68 15 25 C16.98 25 18.96 25 21 25 C16.71247485 28.95288904 12.71770614 28.42197432 7.14453125 28.296875 C2.34254299 27.84351959 -0.63189256 26.36810744 -4 23 C-4.47446383 19.7086564 -4.37036399 16.38420115 -4.375 13.0625 C-4.39949219 12.14275391 -4.42398438 11.22300781 -4.44921875 10.27539062 C-4.45308594 9.39173828 -4.45695312 8.50808594 -4.4609375 7.59765625 C-4.46915527 6.78820557 -4.47737305 5.97875488 -4.48583984 5.14477539 C-4 3 -4 3 -1.97119141 1.21264648 C-1.32069824 0.81247314 -0.67020508 0.4122998 0 0 Z " fill="#2BB4DB" transform="translate(87,78)"/>
<path d="M0 0 C0.66 0 1.32 0 2 0 C1.9129995 1.62600941 1.8048219 3.25089678 1.6875 4.875 C1.62949219 5.77992187 1.57148438 6.68484375 1.51171875 7.6171875 C1 10 1 10 -2 12 C-3.44422226 14.40485798 -3.44422226 14.40485798 -4.6875 17.125 C-5.34298828 18.49011719 -5.34298828 18.49011719 -6.01171875 19.8828125 C-6.33785156 20.58148438 -6.66398438 21.28015625 -7 22 C-9.64 22 -12.28 22 -15 22 C-15 21.34 -15 20.68 -15 20 C-14.0925 20 -13.185 20 -12.25 20 C-9.02891246 19.35593216 -9.02891246 19.35593216 -7.81640625 17.43359375 C-6.06676137 13.95472787 -4.73203545 10.33326688 -3.375 6.6875 C-2 3 -2 3 0 0 Z " fill="#97A0A3" transform="translate(150,86)"/>
<path d="M0 0 C5.28 0 10.56 0 16 0 C14.37621377 10.41929499 12.22046262 20.69532881 10 31 C8.98639885 27.38243359 9.07032103 24.50338503 9.4375 20.75 C9.59025391 19.13351563 9.59025391 19.13351563 9.74609375 17.484375 C9.82988281 16.66453125 9.91367188 15.8446875 10 15 C10.66 15 11.32 15 12 15 C12.06058594 14.40832031 12.12117187 13.81664063 12.18359375 13.20703125 C12.26738281 12.41683594 12.35117188 11.62664062 12.4375 10.8125 C12.55931641 9.64654297 12.55931641 9.64654297 12.68359375 8.45703125 C13.00597621 5.95359214 13.50498105 3.47509476 14 1 C9.71 1 5.42 1 1 1 C0.67 2.65 0.34 4.3 0 6 C-0.66 6 -1.32 6 -2 6 C-1.34 4.02 -0.68 2.04 0 0 Z " fill="#51B4CE" transform="translate(153,69)"/>
<path d="M0 0 C0.99 0.33 1.98 0.66 3 1 C2.566875 2.85625 2.566875 2.85625 2.125 4.75 C1.02989816 9.63524153 0.22924998 14.54956417 -0.53515625 19.49609375 C-1 22 -1 22 -2 24 C-3.65 24 -5.3 24 -7 24 C-7 23.34 -7 22.68 -7 22 C-6.01 21.34 -5.02 20.68 -4 20 C-3.73240461 17.89268631 -3.47853632 15.78210219 -3.31640625 13.6640625 C-2.76015561 8.98056941 -1.34058879 4.51078619 0 0 Z " fill="#8BA4AF" transform="translate(53,84)"/>
<path d="M0 0 C0.99 0 1.98 0 3 0 C1.93597404 3.28880751 0.90249021 5.10360415 -1.5 7.65625 C-4.59937625 11.29379425 -4.96346646 14.72402299 -5.3125 19.375 C-5.38533203 20.11105469 -5.45816406 20.84710938 -5.53320312 21.60546875 C-5.70817669 23.40186406 -5.8568325 25.20079047 -6 27 C-6.66 26.67 -7.32 26.34 -8 26 C-8.05451714 23.95863605 -8.09302485 21.91684144 -8.125 19.875 C-8.14820313 18.73804687 -8.17140625 17.60109375 -8.1953125 16.4296875 C-7.99672109 12.94242233 -7.2524801 10.2446138 -6 7 C-5.34 7 -4.68 7 -4 7 C-3.71125 6.21625 -3.4225 5.4325 -3.125 4.625 C-2 2 -2 2 0 0 Z " fill="#BC8D62" transform="translate(226,73)"/>
<path d="M0 0 C0.33 0.99 0.66 1.98 1 3 C1.66 3 2.32 3 3 3 C3.77916092 8.02125926 4.13016601 11.97703996 3 17 C2.67 17 2.34 17 2 17 C2 15.02 2 13.04 2 11 C1.34 11 0.68 11 0 11 C0 11.66 0 12.32 0 13 C-0.99 13 -1.98 13 -3 13 C-2.88557539 11.39504433 -2.75805306 9.79101881 -2.625 8.1875 C-2.55539063 7.29417969 -2.48578125 6.40085937 -2.4140625 5.48046875 C-2 3 -2 3 0 0 Z " fill="#14B0DB" transform="translate(150,75)"/>
<path d="M0 0 C0.99 0.33 1.98 0.66 3 1 C3.94921875 4.16015625 3.94921875 4.16015625 4.6875 8.0625 C4.93886719 9.35285156 5.19023438 10.64320312 5.44921875 11.97265625 C5.63097656 12.97167969 5.81273438 13.97070312 6 15 C6.66 14.34 7.32 13.68 8 13 C8.28571429 20.42857143 8.28571429 20.42857143 6 24 C5.690625 23.360625 5.38125 22.72125 5.0625 22.0625 C4.1654837 20.06389179 4.1654837 20.06389179 3 19 C2.81445263 17.46260752 2.67680798 15.91932417 2.5625 14.375 C2.17357236 9.99642756 1.30755124 6.18416397 0 2 C0 1.34 0 0.68 0 0 Z " fill="#82AEBB" transform="translate(65,71)"/>
<path d="M0 0 C-0.88042969 0.04898438 -1.76085937 0.09796875 -2.66796875 0.1484375 C-4.41013672 0.26058594 -4.41013672 0.26058594 -6.1875 0.375 C-7.91033203 0.47941406 -7.91033203 0.47941406 -9.66796875 0.5859375 C-12.81761666 0.97733572 -15.10512559 1.77005336 -18 3 C-18.99 3 -19.98 3 -21 3 C-21 3.66 -21 4.32 -21 5 C-21.66 5 -22.32 5 -23 5 C-23.268125 5.639375 -23.53625 6.27875 -23.8125 6.9375 C-25 9 -25 9 -28 10 C-26.65367268 5.28785439 -24.0714519 2.57045581 -20 0 C-13.4801895 -2.58332114 -6.25462043 -3.55793306 0 0 Z " fill="#6ACBE1" transform="translate(112,70)"/>
<path d="M0 0 C0.33 0 0.66 0 1 0 C1.2246285 1.39330381 1.4289245 2.78989209 1.625 4.1875 C1.74101562 4.96480469 1.85703125 5.74210937 1.9765625 6.54296875 C2.00463286 9.48567768 1.15004212 11.3056156 0 14 C-0.42148875 15.92792077 -0.79676438 17.8665317 -1.125 19.8125 C-1.29257813 20.78832031 -1.46015625 21.76414062 -1.6328125 22.76953125 C-1.75398438 23.50558594 -1.87515625 24.24164063 -2 25 C-3.65 25 -5.3 25 -7 25 C-7 24.34 -7 23.68 -7 23 C-6.01 23 -5.02 23 -4 23 C-3.87153687 22.00818726 -3.87153687 22.00818726 -3.74047852 20.99633789 C-3.35220172 18.01780129 -2.9574395 15.04016015 -2.5625 12.0625 C-2.42779297 11.02158203 -2.29308594 9.98066406 -2.15429688 8.90820312 C-2.02216797 7.91884766 -1.89003906 6.92949219 -1.75390625 5.91015625 C-1.63345947 4.99371338 -1.5130127 4.07727051 -1.38891602 3.13305664 C-1 1 -1 1 0 0 Z " fill="#8F9AA0" transform="translate(129,83)"/>
<path d="M0 0 C1.10717914 3.32153743 0.9099978 5.63300816 0 9 C-1 10 -1 10 -3.50390625 10.09765625 C-5.01791016 10.08025391 -5.01791016 10.08025391 -6.5625 10.0625 C-7.57441406 10.05347656 -8.58632812 10.04445313 -9.62890625 10.03515625 C-10.41136719 10.02355469 -11.19382813 10.01195313 -12 10 C-12.33 9.01 -12.66 8.02 -13 7 C-13.66 6.67 -14.32 6.34 -15 6 C-10.38 6 -5.76 6 -1 6 C-0.67 4.02 -0.34 2.04 0 0 Z " fill="#B8A38F" transform="translate(199,98)"/>
<path d="M0 0 C0.99 0 1.98 0 3 0 C2.4375 1.875 2.4375 1.875 1 4 C-5.57950261 6.63180104 -11.81057391 6.95625793 -18.4375 4.625 C-22 3 -22 3 -23 1 C-22.14390137 1.24447876 -22.14390137 1.24447876 -21.27050781 1.49389648 C-18.98346733 2.00368519 -17.01035544 2.11435968 -14.671875 2.09765625 C-13.87265625 2.09443359 -13.0734375 2.09121094 -12.25 2.08789062 C-11.425 2.07951172 -10.6 2.07113281 -9.75 2.0625 C-8.90953125 2.05798828 -8.0690625 2.05347656 -7.203125 2.04882812 C-5.13538599 2.03707961 -3.06768376 2.01914522 -1 2 C-0.67 1.34 -0.34 0.68 0 0 Z " fill="#9CADAF" transform="translate(110,103)"/>
<path d="M0 0 C4.37351643 3.5826888 4.3403633 8.6774142 5 14 C5.125 17.6875 5.125 17.6875 5 20 C5.66 20 6.32 20 7 20 C7 18.02 7 16.04 7 14 C7.33 14 7.66 14 8 14 C8 16.97 8 19.94 8 23 C7.01 23.33 6.02 23.66 5 24 C4.79503906 23.14535156 4.59007812 22.29070312 4.37890625 21.41015625 C3.97478516 19.75306641 3.97478516 19.75306641 3.5625 18.0625 C3.29566406 16.96035156 3.02882812 15.85820313 2.75390625 14.72265625 C2.27004275 12.10578746 2.27004275 12.10578746 1 11 C0.76636119 9.15108054 0.58696365 7.29511969 0.4375 5.4375 C0.35371094 4.42558594 0.26992187 3.41367188 0.18359375 2.37109375 C0.12300781 1.58863281 0.06242188 0.80617188 0 0 Z " fill="#BF9D7D" transform="translate(189,69)"/>
<path d="M0 0 C5.28 0 10.56 0 16 0 C15.67 0.99 15.34 1.98 15 3 C15 2.34 15 1.68 15 1 C10.38 1 5.76 1 1 1 C1.185625 3.1965625 1.185625 3.1965625 1.375 5.4375 C1.44460937 6.26121094 1.51421875 7.08492188 1.5859375 7.93359375 C1.72257812 8.61550781 1.85921875 9.29742187 2 10 C2.66 10.33 3.32 10.66 4 11 C3.37240135 13.92879371 2.41377341 16.36095629 1 19 C0.34 19 -0.32 19 -1 19 C-0.67 12.73 -0.34 6.46 0 0 Z " fill="#37B9DD" transform="translate(126,69)"/>
<path d="M0 0 C1.65 0 3.3 0 5 0 C4.8864371 1.64666203 4.75882619 3.29236082 4.625 4.9375 C4.55539063 5.85402344 4.48578125 6.77054687 4.4140625 7.71484375 C4.27742188 8.46894531 4.14078125 9.22304687 4 10 C3.01 10.495 3.01 10.495 2 11 C1.27840576 12.64363134 0.60648579 14.31050386 0 16 C-0.33 16 -0.66 16 -1 16 C-0.67 10.72 -0.34 5.44 0 0 Z " fill="#0FB0E1" transform="translate(76,70)"/>
<path d="M0 0 C1.32 0 2.64 0 4 0 C3.67 2.97 3.34 5.94 3 9 C2.34 9 1.68 9 1 9 C0.87625 10.134375 0.7525 11.26875 0.625 12.4375 C0.41875 13.613125 0.2125 14.78875 0 16 C-0.66 16.33 -1.32 16.66 -2 17 C-2.25287193 10.93107371 -1.69832609 5.83799592 0 0 Z " fill="#EC7F1D" transform="translate(201,69)"/>
<path d="M0 0 C0.66 0 1.32 0 2 0 C0.66666667 4 -0.66666667 8 -2 12 C-4.31 12.33 -6.62 12.66 -9 13 C-9.99 11.68 -10.98 10.36 -12 9 C-9.36 9 -6.72 9 -4 9 C-3.71125 8.071875 -3.4225 7.14375 -3.125 6.1875 C-2 3 -2 3 0 0 Z " fill="#B5A391" transform="translate(268,95)"/>
<path d="M0 0 C-0.51553879 6.49850211 -1.46667709 12.66226532 -3 19 C-3.99 18.67 -4.98 18.34 -6 18 C-5.55229391 15.18542106 -5.09242783 12.37380871 -4.625 9.5625 C-4.49867188 8.76005859 -4.37234375 7.95761719 -4.2421875 7.13085938 C-3.89517204 5.07479277 -3.45409572 3.03509869 -3 1 C-1 0 -1 0 0 0 Z " fill="#99A7AD" transform="translate(171,71)"/>
<path d="M0 0 C1.65 0 3.3 0 5 0 C3.68 0.33 2.36 0.66 1 1 C0.67 3.64 0.34 6.28 0 9 C1.32 9.33 2.64 9.66 4 10 C4 11.65 4 13.3 4 15 C3.67 13.68 3.34 12.36 3 11 C2.34 11 1.68 11 1 11 C1 13.31 1 15.62 1 18 C0.01 18 -0.98 18 -2 18 C-1.8590651 15.56212615 -1.71245458 13.12482147 -1.5625 10.6875 C-1.52318359 9.99720703 -1.48386719 9.30691406 -1.44335938 8.59570312 C-1.25072585 5.52838465 -0.97677283 2.93031848 0 0 Z " fill="#EC7F1D" transform="translate(251,69)"/>
<path d="M0 0 C5.28 0 10.56 0 16 0 C16 0.99 16 1.98 16 3 C16.66 3 17.32 3 18 3 C17.03644647 12.41002278 17.03644647 12.41002278 16 17 C15.34 16.34 14.68 15.68 14 15 C14.03380206 10.30151307 14.57420419 5.68375395 15 1 C10.05 1.33 5.1 1.66 0 2 C0 1.34 0 0.68 0 0 Z " fill="#C6AA90" transform="translate(277,68)"/>
<path d="M0 0 C3.96 0 7.92 0 12 0 C12.48828125 2.31119792 12.9765625 4.62239583 13.46484375 6.93359375 C13.80752994 8.97661204 13.80752994 8.97661204 15 10 C15.23498924 11.61881478 15.41376471 13.24599446 15.5625 14.875 C15.64628906 15.75929688 15.73007813 16.64359375 15.81640625 17.5546875 C16 20 16 20 16 23 C15.34 22.67 14.68 22.34 14 22 C13.51342773 20.28173828 13.51342773 20.28173828 13.18359375 18.0703125 C12.99700195 16.87728516 12.99700195 16.87728516 12.80664062 15.66015625 C12.62391602 14.40525391 12.62391602 14.40525391 12.4375 13.125 C12.18828411 11.48145314 11.93706162 9.83820899 11.68359375 8.1953125 C11.57587646 7.46328613 11.46815918 6.73125977 11.35717773 5.97705078 C11.01218622 3.79900944 11.01218622 3.79900944 10 1 C6.7 1 3.4 1 0 1 C0 0.67 0 0.34 0 0 Z " fill="#25AAD1" transform="translate(53,70)"/>
<path d="M0 0 C0.33 0 0.66 0 1 0 C1.125 7.75 1.125 7.75 0 10 C-0.23358798 12.56081642 -0.38163069 15.12005034 -0.5234375 17.6875 C-1 20 -1 20 -4 22 C-4.33 21.01 -4.66 20.02 -5 19 C-4.34 18.34 -3.68 17.68 -3 17 C-2.96745228 15.01458926 -2.94186051 13.02790551 -2.99609375 11.04296875 C-3.00076831 8.59817455 -2.59181137 6.36724546 -2 4 C-1.34 4 -0.68 4 0 4 C0 2.68 0 1.36 0 0 Z " fill="#10B1DF" transform="translate(50,83)"/>
<path d="M0 0 C1.66413655 3.3282731 0.81867406 6.99733973 0.5625 10.625 C0.51029297 11.42679688 0.45808594 12.22859375 0.40429688 13.0546875 C0.27451629 15.03679103 0.13790265 17.01844499 0 19 C0.66 19.33 1.32 19.66 2 20 C-1.875 19.125 -1.875 19.125 -3 18 C-3.68021574 11.28941008 -2.72124382 6.12279859 0 0 Z " fill="#6FA6B3" transform="translate(97,82)"/>
<path d="M0 0 C0.66 0.33 1.32 0.66 2 1 C2 2.65 2 4.3 2 6 C3.45922693 5.88590407 4.91740598 5.75834456 6.375 5.625 C7.18710938 5.55539063 7.99921875 5.48578125 8.8359375 5.4140625 C11.20334191 5.17107412 11.20334191 5.17107412 13 3 C13 4.65 13 6.3 13 8 C8.38 8 3.76 8 -1 8 C-0.67 5.36 -0.34 2.72 0 0 Z " fill="#4BB4D3" transform="translate(149,98)"/>
<path d="M0 0 C0.33 0 0.66 0 1 0 C1.02705729 1.77074917 1.04642195 3.54161711 1.0625 5.3125 C1.07410156 6.29863281 1.08570312 7.28476563 1.09765625 8.30078125 C1 11 1 11 0 14 C-1.32 14 -2.64 14 -4 14 C-4 12.02 -4 10.04 -4 8 C-3.34 8 -2.68 8 -2 8 C-1.855625 6.865625 -1.71125 5.73125 -1.5625 4.5625 C-1 1 -1 1 0 0 Z " fill="#16B1D9" transform="translate(124,91)"/>
<path d="M0 0 C2.37329852 2.27011163 3.87664088 3.72370756 4.203125 7.1015625 C4.31549904 13.1510314 3.4584651 17.46845353 1 23 C0.67 23 0.34 23 0 23 C-0.042721 21.33388095 -0.04063832 19.66617115 0 18 C0.33 17.67 0.66 17.34 1 17 C1.33111384 11.28341698 1.21293283 5.60981434 0 0 Z " fill="#C49973" transform="translate(240,72)"/>
<path d="M0 0 C0.66 0 1.32 0 2 0 C1.88512252 1.58409994 1.75765492 3.16728963 1.625 4.75 C1.55539062 5.63171875 1.48578125 6.5134375 1.4140625 7.421875 C1.00149945 9.99066382 0.28839043 11.75841015 -1 14 C-1.33 12.68 -1.66 11.36 -2 10 C-2.66 10 -3.32 10 -4 10 C-3.43697042 6.05879291 -2.3208055 3.2491277 0 0 Z " fill="#B98D65" transform="translate(274,85)"/>
<path d="M0 0 C0 0.66 0 1.32 0 2 C-6.46882605 5.95317148 -10.58637386 6.39765083 -18 5 C-18 4.67 -18 4.34 -18 4 C-17.15695313 3.79503906 -16.31390625 3.59007813 -15.4453125 3.37890625 C-14.34960938 3.10949219 -13.25390625 2.84007813 -12.125 2.5625 C-11.03445312 2.29566406 -9.94390625 2.02882813 -8.8203125 1.75390625 C-2.25906736 0 -2.25906736 0 0 0 Z " fill="#AC9C8C" transform="translate(236,102)"/>
<path d="M0 0 C0.66 0 1.32 0 2 0 C2.027193 1.58323688 2.04648306 3.16661062 2.0625 4.75 C2.07410156 5.63171875 2.08570313 6.5134375 2.09765625 7.421875 C2.00826198 9.7818838 1.66912821 11.74498524 1 14 C-0.32 14 -1.64 14 -3 14 C-3 12.68 -3 11.36 -3 10 C-2.34 10 -1.68 10 -1 10 C-0.67 6.7 -0.34 3.4 0 0 Z " fill="#ED7E1D" transform="translate(247,90)"/>
<path d="M0 0 C0.33 0 0.66 0 1 0 C1.06058594 1.08539063 1.12117187 2.17078125 1.18359375 3.2890625 C1.26806064 4.73438486 1.35270551 6.17969682 1.4375 7.625 C1.47681641 8.33785156 1.51613281 9.05070312 1.55664062 9.78515625 C1.80309681 13.91803682 2.23470053 17.92269024 3 22 C0 20 0 20 -1 17 C-1.09528823 14.66824086 -1.12986188 12.33370026 -1.125 10 C-1.12886719 8.14375 -1.12886719 8.14375 -1.1328125 6.25 C-1 3 -1 3 0 0 Z " fill="#EC9D53" transform="translate(207,80)"/>
<path d="M0 0 C0.66 0 1.32 0 2 0 C2.66 4.62 3.32 9.24 4 14 C2.68 14 1.36 14 0 14 C0 9.38 0 4.76 0 0 Z " fill="#8CABB4" transform="translate(142,72)"/>
<path d="M0 0 C0.33 0 0.66 0 1 0 C1.09765625 6.15234375 1.09765625 6.15234375 1 8 C0.67 8.33 0.34 8.66 0 9 C-0.2165625 10.7325 -0.2165625 10.7325 -0.4375 12.5 C-0.623125 13.655 -0.80875 14.81 -1 16 C-1.66 16.33 -2.32 16.66 -3 17 C-3 13.04 -3 9.08 -3 5 C-2.34 5 -1.68 5 -1 5 C-0.67 3.35 -0.34 1.7 0 0 Z " fill="#F17E16" transform="translate(174,82)"/>
<path d="M0 0 C0.33 0 0.66 0 1 0 C1.33 4.29 1.66 8.58 2 13 C1.01 13.495 1.01 13.495 0 14 C-0.65213292 16.02463255 -0.65213292 16.02463255 -1 18 C-1.66 18 -2.32 18 -3 18 C-2.41509121 11.85845775 -1.45933748 5.99320151 0 0 Z " fill="#ED9C51" transform="translate(174,69)"/>
<path d="M0 0 C0.33 0 0.66 0 1 0 C1 1.65 1 3.3 1 5 C3.31 4.01 5.62 3.02 8 2 C7.44894091 5.9492568 6.61064629 9.34920174 5 13 C4.67 13 4.34 13 4 13 C3.896875 12.21625 3.79375 11.4325 3.6875 10.625 C3.22404978 7.66954819 3.22404978 7.66954819 0 6 C-0.1875 2.875 -0.1875 2.875 0 0 Z " fill="#E98022" transform="translate(265,82)"/>
<path d="M0 0 C0.66 0.33 1.32 0.66 2 1 C1.85892253 2.45880109 1.71197585 3.91703551 1.5625 5.375 C1.48128906 6.18710938 1.40007812 6.99921875 1.31640625 7.8359375 C1 10 1 10 0 12 C-1.65 11.67 -3.3 11.34 -5 11 C-5 10.34 -5 9.68 -5 9 C-5.99 9 -6.98 9 -8 9 C-7.67 8.01 -7.34 7.02 -7 6 C-7 6.66 -7 7.32 -7 8 C-4.69 8 -2.38 8 0 8 C0 5.36 0 2.72 0 0 Z " fill="#B9AEA8" transform="translate(175,96)"/>
<path d="M0 0 C0.33 0 0.66 0 1 0 C1.33 4.29 1.66 8.58 2 13 C1.01 13.33 0.02 13.66 -1 14 C-0.67 15.32 -0.34 16.64 0 18 C-0.99 17.67 -1.98 17.34 -3 17 C-2.01 11.39 -1.02 5.78 0 0 Z " fill="#58C5E1" transform="translate(46,88)"/>
<path d="M0 0 C0 3.3396601 -0.79185165 5.43541001 -1.9375 8.5625 C-3.83579351 14.06956352 -4.74315239 19.19524405 -5 25 C-5.33 25 -5.66 25 -6 25 C-6.21133202 17.95559921 -6.07965362 11.75887425 -4 5 C-3.34 5 -2.68 5 -2 5 C-2 3.68 -2 2.36 -2 1 C-1.34 0.67 -0.68 0.34 0 0 Z " fill="#29AACF" transform="translate(99,75)"/>
<path d="M0 0 C0.33 0 0.66 0 1 0 C1.04241723 2.33294775 1.04092937 4.66702567 1 7 C0 8 0 8 -2.94140625 8.09765625 C-4.73384766 8.08025391 -4.73384766 8.08025391 -6.5625 8.0625 C-8.35880859 8.04896484 -8.35880859 8.04896484 -10.19140625 8.03515625 C-11.11824219 8.02355469 -12.04507813 8.01195313 -13 8 C-13 7.34 -13 6.68 -13 6 C-9.04 6 -5.08 6 -1 6 C-0.67 4.02 -0.34 2.04 0 0 Z " fill="#909EA0" transform="translate(76,100)"/>
<path d="M0 0 C0.33 0 0.66 0 1 0 C1 1.98 1 3.96 1 6 C-0.62463842 6.05395478 -2.24978541 6.09277195 -3.875 6.125 C-4.77992187 6.14820312 -5.68484375 6.17140625 -6.6171875 6.1953125 C-9 6 -9 6 -11 4 C-8.59454362 2.79727181 -7.05003047 2.89928528 -4.375 2.9375 C-3.14910156 2.95103516 -3.14910156 2.95103516 -1.8984375 2.96484375 C-0.95871094 2.98224609 -0.95871094 2.98224609 0 3 C0 2.01 0 1.02 0 0 Z " fill="#29ABCF" transform="translate(73,100)"/>
<path d="M0 0 C4.29 0 8.58 0 13 0 C13 0.33 13 0.66 13 1 C7.555 1.495 7.555 1.495 2 2 C0.87873219 5.79788698 0.87873219 5.79788698 1 9 C-0.32 8.67 -1.64 8.34 -3 8 C-3 7.01 -3 6.02 -3 5 C-2.34 5 -1.68 5 -1 5 C-0.67 3.35 -0.34 1.7 0 0 Z " fill="#13B0D8" transform="translate(154,70)"/>
<path d="M0 0 C0.33 0 0.66 0 1 0 C1.06058594 0.77085938 1.12117187 1.54171875 1.18359375 2.3359375 C1.26738281 3.33882813 1.35117188 4.34171875 1.4375 5.375 C1.55931641 6.87160156 1.55931641 6.87160156 1.68359375 8.3984375 C1.84965626 10.97927613 1.84965626 10.97927613 3 13 C2.67 13.99 2.34 14.98 2 16 C1.01 16 0.02 16 -1 16 C-1.02725341 14.2709226 -1.04650987 12.54171824 -1.0625 10.8125 C-1.07410156 9.84957031 -1.08570313 8.88664062 -1.09765625 7.89453125 C-1.00486622 5.14423487 -0.62111685 2.67520409 0 0 Z " fill="#ED9241" transform="translate(170,87)"/>
<path d="M0 0 C2.31 0 4.62 0 7 0 C7.28875 0.61875 7.5775 1.2375 7.875 1.875 C8.93720042 4.13325765 8.93720042 4.13325765 11 6 C7.53058454 5.54177532 4.32604951 5.10868317 1 4 C0.3125 1.9375 0.3125 1.9375 0 0 Z " fill="#F77B0F" transform="translate(210,97)"/>
<path d="M0 0 C0.33 0 0.66 0 1 0 C1.33 3.96 1.66 7.92 2 12 C1.34 12 0.68 12 0 12 C-0.99 13.485 -0.99 13.485 -2 15 C-2.99 14.67 -3.98 14.34 -5 14 C-4.72285156 13.40832031 -4.44570312 12.81664063 -4.16015625 12.20703125 C-1.44225847 6.30953569 -1.44225847 6.30953569 0 0 Z " fill="#5CC9E3" transform="translate(104,86)"/>
<path d="M0 0 C1.14319652 3.35337646 0.85351312 5.20893732 -0.375 8.5 C-1.42121392 11.35508845 -2.25749221 14.02996882 -3 17 C-3.33 14.03 -3.66 11.06 -4 8 C-3.34 8 -2.68 8 -2 8 C-2.04125 7.05125 -2.0825 6.1025 -2.125 5.125 C-2 2 -2 2 0 0 Z " fill="#C7E5E9" transform="translate(123,82)"/>
<path d="M0 0 C1 2 1 2 0.0625 5.125 C-0.288125 6.07375 -0.63875 7.0225 -1 8 C-0.01 8.33 0.98 8.66 2 9 C1.34 9 0.68 9 0 9 C0 10.65 0 12.3 0 14 C-0.99 14.495 -0.99 14.495 -2 15 C-2 13.68 -2 12.36 -2 11 C-2.66 11 -3.32 11 -4 11 C-3.48964169 6.6109185 -2.47785723 3.66291938 0 0 Z " fill="#EB9C55" transform="translate(274,74)"/>
<path d="M0 0 C0.33 1.32 0.66 2.64 1 4 C2.98 4 4.96 4 7 4 C7.33 3.01 7.66 2.02 8 1 C9.04449911 4.13349732 8.93423645 4.98968256 8 8 C6.35 8 4.7 8 3 8 C3 7.01 3 6.02 3 5 C2.01 5 1.02 5 0 5 C0 3.35 0 1.7 0 0 Z " fill="#BEB0A3" transform="translate(243,100)"/>
<path d="M0 0 C5.94 0.66 11.88 1.32 18 2 C13.34034152 4.32982924 10.10842345 4.61810106 5 4 C1.9375 2.5625 1.9375 2.5625 0 1 C0 0.67 0 0.34 0 0 Z " fill="#C38F5F" transform="translate(210,102)"/>
<path d="M0 0 C0.66 0 1.32 0 2 0 C1.67 3.3 1.34 6.6 1 10 C0.67 9.34 0.34 8.68 0 8 C-1.32 8.33 -2.64 8.66 -4 9 C-2.94124926 5.59687262 -1.99097846 2.98646769 0 0 Z " fill="#71A8BA" transform="translate(150,86)"/>
<path d="M0 0 C0.33 0 0.66 0 1 0 C1.2236337 1.41433206 1.42826476 2.83167618 1.625 4.25 C1.74101562 5.03890625 1.85703125 5.8278125 1.9765625 6.640625 C2.00319395 9.32152459 1.36592084 10.72694089 0 13 C-0.66 13 -1.32 13 -2 13 C-1.85966889 11.02043559 -1.7125877 9.04134859 -1.5625 7.0625 C-1.48128906 5.96035156 -1.40007812 4.85820313 -1.31640625 3.72265625 C-1 1 -1 1 0 0 Z " fill="#79A6B5" transform="translate(129,83)"/>
<path d="M0 0 C0.66 0 1.32 0 2 0 C2.05395478 1.62463842 2.09277195 3.24978541 2.125 4.875 C2.14820312 5.77992187 2.17140625 6.68484375 2.1953125 7.6171875 C2 10 2 10 0 12 C0 10.68 0 9.36 0 8 C-0.99 7.67 -1.98 7.34 -3 7 C-2.01 4.69 -1.02 2.38 0 0 Z " fill="#12B0DD" transform="translate(73,88)"/>
<path d="M0 0 C0.66 0.33 1.32 0.66 2 1 C2 1.99 2 2.98 2 4 C-2.29 4 -6.58 4 -11 4 C-11 3.34 -11 2.68 -11 2 C-7.37 2 -3.74 2 0 2 C0 1.34 0 0.68 0 0 Z " fill="#91A0A3" transform="translate(162,104)"/>
<path d="M0 0 C0.99 0 1.98 0 3 0 C3 0.66 3 1.32 3 2 C6.3 2 9.6 2 13 2 C13 1.34 13 0.68 13 0 C14.98 0 16.96 0 19 0 C15.54413763 3.23455099 13.02236005 3.35490655 8.375 3.25 C7.22773437 3.23453125 6.08046875 3.2190625 4.8984375 3.203125 C2 3 2 3 0 2 C0 1.34 0 0.68 0 0 Z " fill="#2CA9CA" transform="translate(89,103)"/>
<path d="M0 0 C3 2 3 2 3.51171875 3.9453125 C3.67447917 5.96354167 3.83723958 7.98177083 4 10 C4.66 10 5.32 10 6 10 C5.67 12.31 5.34 14.62 5 17 C3.03470991 13.54792524 2.2253523 10.11523774 1.375 6.25 C1.11460937 5.07953125 0.85421875 3.9090625 0.5859375 2.703125 C0.39257812 1.81109375 0.19921875 0.9190625 0 0 Z " fill="#EEB06E" transform="translate(179,86)"/>
<path d="M0 0 C4.62 0 9.24 0 14 0 C14 1.65 14 3.3 14 5 C13.01 4.34 12.02 3.68 11 3 C9.68 3 8.36 3 7 3 C7 2.34 7 1.68 7 1 C4.69 1 2.38 1 0 1 C0 0.67 0 0.34 0 0 Z " fill="#EB9447" transform="translate(175,68)"/>
<path d="M0 0 C2.31 0.33 4.62 0.66 7 1 C6.67 1.99 6.34 2.98 6 4 C3.36 4.33 0.72 4.66 -2 5 C-2 4.34 -2 3.68 -2 3 C-2.66 2.67 -3.32 2.34 -4 2 C-2.68 2 -1.36 2 0 2 C0 1.34 0 0.68 0 0 Z " fill="#18ADDF" transform="translate(94,100)"/>
<path d="M0 0 C2.56269497 1.04109483 4.02610343 2.02610343 6 4 C6 5.32 6 6.64 6 8 C5.34 8 4.68 8 4 8 C4 6.68 4 5.36 4 4 C2.02 4 0.04 4 -2 4 C-2 3.01 -2 2.02 -2 1 C-1.34 0.67 -0.68 0.34 0 0 Z " fill="#44BDDC" transform="translate(112,70)"/>
<path d="M0 0 C1.65 0 3.3 0 5 0 C4.67 3.3 4.34 6.6 4 10 C3.67 10 3.34 10 3 10 C3 8.02 3 6.04 3 4 C2.34 4 1.68 4 1 4 C0.67 4.66 0.34 5.32 0 6 C0 4.02 0 2.04 0 0 Z " fill="#23ABD0" transform="translate(76,70)"/>
<path d="M0 0 C0.66 0 1.32 0 2 0 C1.52727227 4.25454953 -0.96437376 6.19204573 -4 9 C-4.33 9.33 -4.66 9.66 -5 10 C-6.66617115 10.04063832 -8.33388095 10.042721 -10 10 C-9.278125 9.46375 -8.55625 8.9275 -7.8125 8.375 C-5.62202856 6.52526856 -4.06588641 4.95216984 -2.3125 2.75 C-1.549375 1.8425 -0.78625 0.935 0 0 Z " fill="#58A6B7" transform="translate(114,96)"/>
<path d="M0 0 C0.33 0.99 0.66 1.98 1 3 C1.66 3 2.32 3 3 3 C3.33 4.32 3.66 5.64 4 7 C2.35 7.33 0.7 7.66 -1 8 C-1.625 5.6875 -1.625 5.6875 -2 3 C-1.34 2.01 -0.68 1.02 0 0 Z " fill="#35BEE5" transform="translate(150,75)"/>
<path d="M0 0 C-0.33 3.3 -0.66 6.6 -1 10 C-1.99 9.67 -2.98 9.34 -4 9 C-3.4140625 2.84765625 -3.4140625 2.84765625 -3 1 C-1 0 -1 0 0 0 Z " fill="#A3ADB6" transform="translate(171,71)"/>
<path d="M0 0 C0.66 0.33 1.32 0.66 2 1 C2 6.28 2 11.56 2 17 C1.67 17 1.34 17 1 17 C0.63724344 14.73052303 0.28506814 12.45935265 -0.0625 10.1875 C-0.25972656 8.92292969 -0.45695313 7.65835938 -0.66015625 6.35546875 C-1 3 -1 3 0 0 Z " fill="#E5A25C" transform="translate(254,84)"/>
<path d="M0 0 C0.99 0 1.98 0 3 0 C1.73058503 3.91402949 0.48832306 5.79072873 -3 8 C-2.25 2.25 -2.25 2.25 0 0 Z " fill="#A69E9B" transform="translate(226,73)"/>
<path d="M0 0 C1.60156595 4.00391487 0.4087561 7.07031192 -1 11 C-1.99 11.495 -1.99 11.495 -3 12 C-3.33 10.35 -3.66 8.7 -4 7 C-3.34 6.67 -2.68 6.34 -2 6 C-1.27306096 4.02111039 -0.60183749 2.02045442 0 0 Z " fill="#16AED6" transform="translate(162,92)"/>
<path d="M0 0 C4.62 0 9.24 0 14 0 C14 0.33 14 0.66 14 1 C8.06 1.495 8.06 1.495 2 2 C1.67 2.99 1.34 3.98 1 5 C0.34 5 -0.32 5 -1 5 C-0.67 3.35 -0.34 1.7 0 0 Z " fill="#63BFDC" transform="translate(51,69)"/>
<path d="M0 0 C0.33 0.99 0.66 1.98 1 3 C1.66 3 2.32 3 3 3 C2.67 5.64 2.34 8.28 2 11 C1.34 10.67 0.68 10.34 0 10 C0 6.7 0 3.4 0 0 Z " fill="#B9AFA4" transform="translate(205,68)"/>
<path d="M0 0 C0.33 0 0.66 0 1 0 C1.28571429 7.42857143 1.28571429 7.42857143 -1 11 C-1.33 11 -1.66 11 -2 11 C-2.05399736 9.54207116 -2.09279177 8.08357288 -2.125 6.625 C-2.15980469 5.40683594 -2.15980469 5.40683594 -2.1953125 4.1640625 C-2 2 -2 2 0 0 Z " fill="#73BED6" transform="translate(72,84)"/>
<path d="M0 0 C0.33 0 0.66 0 1 0 C1 2.97 1 5.94 1 9 C0.01 9.33 -0.98 9.66 -2 10 C-2.33 8.02 -2.66 6.04 -3 4 C-2.67 4.66 -2.34 5.32 -2 6 C-1.34 6 -0.68 6 0 6 C0 4.02 0 2.04 0 0 Z " fill="#DC9C63" transform="translate(196,83)"/>
<path d="M0 0 C0.66 0 1.32 0 2 0 C0.94124926 3.40312738 -0.00902154 6.01353231 -2 9 C-2.66 9 -3.32 9 -4 9 C-2.94124926 5.59687262 -1.99097846 2.98646769 0 0 Z " fill="#BF8D61" transform="translate(268,95)"/>
<path d="M0 0 C0.33 0 0.66 0 1 0 C1.17942163 3.94727588 1.09350689 6.5980513 -1 10 C-2.38125018 7.23749964 -2.19079306 5.05268901 -2 2 C-1.34 1.34 -0.68 0.68 0 0 Z " fill="#C4AC95" transform="translate(274,89)"/>
<path d="M0 0 C0.33 0 0.66 0 1 0 C1 2.64 1 5.28 1 8 C-0.65 8 -2.3 8 -4 8 C-4 7.34 -4 6.68 -4 6 C-3.01 5.34 -2.02 4.68 -1 4 C-0.27617533 1.94074861 -0.27617533 1.94074861 0 0 Z " fill="#929AA5" transform="translate(50,100)"/>
<path d="M0 0 C-0.33 1.32 -0.66 2.64 -1 4 C-3.64 3.67 -6.28 3.34 -9 3 C-9 2.67 -9 2.34 -9 2 C-2.25 0 -2.25 0 0 0 Z " fill="#3BA8C7" transform="translate(142,102)"/>
<path d="M0 0 C0.33 0 0.66 0 1 0 C1.33 2.97 1.66 5.94 2 9 C1.01 9.33 0.02 9.66 -1 10 C-0.67 6.7 -0.34 3.4 0 0 Z " fill="#EEAF6F" transform="translate(229,80)"/>
<path d="M0 0 C0.66 0 1.32 0 2 0 C1.67 3.3 1.34 6.6 1 10 C0.67 10 0.34 10 0 10 C0 8.02 0 6.04 0 4 C-0.66 4 -1.32 4 -2 4 C-2 3.34 -2 2.68 -2 2 C-1.34 2 -0.68 2 0 2 C0 1.34 0 0.68 0 0 Z " fill="#2FAAD1" transform="translate(152,82)"/>
<path d="M0 0 C0.66 0 1.32 0 2 0 C1.67 2.64 1.34 5.28 1 8 C0.34 7.67 -0.32 7.34 -1 7 C-0.67 4.69 -0.34 2.38 0 0 Z " fill="#A5ABAE" transform="translate(82,72)"/>
<path d="M0 0 C1.65 0 3.3 0 5 0 C5 2.31 5 4.62 5 7 C4.34 7 3.68 7 3 7 C2.67 5.68 2.34 4.36 2 3 C2.66 3 3.32 3 4 3 C4 2.34 4 1.68 4 1 C2.68 0.67 1.36 0.34 0 0 Z " fill="#E0822F" transform="translate(287,69)"/>
</svg>
